<svg width="960" height="464" viewBox="0 0 960 464" fill="none" xmlns="http://www.w3.org/2000/svg">
<path d="M888 9H277C270.373 9 265 14.3726 265 21V431C265 437.627 270.373 443 277 443H888C894.627 443 900 437.627 900 431V21C900 14.3726 894.627 9 888 9Z" fill="#191D36"/>
<path d="M887 12H278C272.477 12 268 16.4772 268 22V430C268 435.523 272.477 440 278 440H887C892.523 440 897 435.523 897 430V22C897 16.4772 892.523 12 887 12Z" fill="#0B0E21"/>
<path d="M879 25H286C283.239 25 281 27.2386 281 30V422C281 424.761 283.239 427 286 427H879C881.761 427 884 424.761 884 422V30C884 27.2386 881.761 25 879 25Z" fill="#16171B"/>
<mask id="mask0_1_3" style="mask-type:alpha" maskUnits="userSpaceOnUse" x="284" y="27" width="598" height="397">
<path d="M878.554 27H287C285.343 27 284 28.3431 284 30V420.861C284 422.518 285.343 423.861 287 423.861H878.554C880.211 423.861 881.554 422.518 881.554 420.861V30C881.554 28.3431 880.211 27 878.554 27Z" fill="white"/>
</mask>
<g mask="url(#mask0_1_3)">
<path d="M878.554 27H287C285.343 27 284 28.3431 284 30V420.861C284 422.518 285.343 423.861 287 423.861H878.554C880.211 423.861 881.554 422.518 881.554 420.861V30C881.554 28.3431 880.211 27 878.554 27Z" fill="#EBEDF4"/>
<path d="M739 116H418C415.239 116 413 118.239 413 121V158C413 160.761 415.239 163 418 163H739C741.761 163 744 160.761 744 158V121C744 118.239 741.761 116 739 116Z" fill="white"/>
<path d="M479.5 134H431.5C430.119 134 429 135.119 429 136.5C429 137.881 430.119 139 431.5 139H479.5C480.881 139 482 137.881 482 136.5C482 135.119 480.881 134 479.5 134Z" fill="#B1B4C7"/>
<path d="M460.5 143H431.5C430.119 143 429 144.119 429 145.5C429 146.881 430.119 148 431.5 148H460.5C461.881 148 463 146.881 463 145.5C463 144.119 461.881 143 460.5 143Z" fill="#D4D7E6"/>
<path d="M554.5 134H506.5C505.119 134 504 135.119 504 136.5C504 137.881 505.119 139 506.5 139H554.5C555.881 139 557 137.881 557 136.5C557 135.119 555.881 134 554.5 134Z" fill="#B1B4C7"/>
<path d="M535.5 143H506.5C505.119 143 504 144.119 504 145.5C504 146.881 505.119 148 506.5 148H535.5C536.881 148 538 146.881 538 145.5C538 144.119 536.881 143 535.5 143Z" fill="#D4D7E6"/>
<path d="M656.5 134H608.5C607.119 134 606 135.119 606 136.5C606 137.881 607.119 139 608.5 139H656.5C657.881 139 659 137.881 659 136.5C659 135.119 657.881 134 656.5 134Z" fill="#B1B4C7"/>
<path d="M637.5 143H608.5C607.119 143 606 144.119 606 145.5C606 146.881 607.119 148 608.5 148H637.5C638.881 148 640 146.881 640 145.5C640 144.119 638.881 143 637.5 143Z" fill="#D4D7E6"/>
<path d="M729.5 134H681.5C680.119 134 679 135.119 679 136.5C679 137.881 680.119 139 681.5 139H729.5C730.881 139 732 137.881 732 136.5C732 135.119 730.881 134 729.5 134Z" fill="#B1B4C7"/>
<path d="M710.5 143H681.5C680.119 143 679 144.119 679 145.5C679 146.881 680.119 148 681.5 148H710.5C711.881 148 713 146.881 713 145.5C713 144.119 711.881 143 710.5 143Z" fill="#D4D7E6"/>
<mask id="mask1_1_3" style="mask-type:alpha" maskUnits="userSpaceOnUse" x="413" y="177" width="331" height="184">
<path d="M739 177H418C415.239 177 413 179.239 413 182V356C413 358.761 415.239 361 418 361H739C741.761 361 744 358.761 744 356V182C744 179.239 741.761 177 739 177Z" fill="white"/>
</mask>
<g mask="url(#mask1_1_3)">
<path d="M739 177H418C415.239 177 413 179.239 413 182V356C413 358.761 415.239 361 418 361H739C741.761 361 744 358.761 744 356V182C744 179.239 741.761 177 739 177Z" fill="white"/>
<path d="M569 209H409C402.373 209 397 214.373 397 221C397 227.627 402.373 233 409 233H569C575.627 233 581 227.627 581 221C581 214.373 575.627 209 569 209Z" fill="#FF5E5E"/>
<path d="M569 305H409C402.373 305 397 310.373 397 317C397 323.627 402.373 329 409 329H569C575.627 329 581 323.627 581 317C581 310.373 575.627 305 569 305Z" fill="#FF5E5E"/>
<path d="M613 221C613 214.373 607.627 209 601 209C594.373 209 589 214.373 589 221C589 227.627 594.373 233 601 233C607.627 233 613 227.627 613 221Z" fill="#BC4747"/>
<path d="M665 241H601C594.373 241 589 246.373 589 253C589 259.627 594.373 265 601 265H665C671.627 265 677 259.627 677 253C677 246.373 671.627 241 665 241Z" fill="#FF5E5E"/>
<path d="M569 240.547H479C472.373 240.547 467 245.92 467 252.547C467 259.174 472.373 264.547 479 264.547H569C575.627 264.547 581 259.174 581 252.547C581 245.92 575.627 240.547 569 240.547Z" fill="#BC4747"/>
<path d="M665 273.53H639C632.373 273.53 627 278.903 627 285.53C627 292.157 632.373 297.53 639 297.53H665C671.627 297.53 677 292.157 677 285.53C677 278.903 671.627 273.53 665 273.53Z" fill="#FF5E5E"/>
<path d="M447 272.925H392C385.373 272.925 380 278.298 380 284.925C380 291.552 385.373 296.925 392 296.925H447C453.627 296.925 459 291.552 459 284.925C459 278.298 453.627 272.925 447 272.925Z" fill="#FF5E5E"/>
<path d="M709 253C709 246.373 703.627 241 697 241C690.373 241 685 246.373 685 253C685 259.627 690.373 265 697 265C703.627 265 709 259.627 709 253Z" fill="#BC4747"/>
</g>
<path d="M487.5 41H415.5C414.119 41 413 42.1193 413 43.5C413 44.8807 414.119 46 415.5 46H487.5C488.881 46 490 44.8807 490 43.5C490 42.1193 488.881 41 487.5 41Z" fill="#CBCEDC"/>
<path d="M469.5 67H422.5C417.253 67 413 71.2533 413 76.5C413 81.7467 417.253 86 422.5 86H469.5C474.747 86 479 81.7467 479 76.5C479 71.2533 474.747 67 469.5 67Z" fill="#8C90A3"/>
<path d="M510.5 67.288H498.5C493.253 67.288 489 71.5413 489 76.788C489 82.0347 493.253 86.288 498.5 86.288H510.5C515.747 86.288 520 82.0347 520 76.788C520 71.5413 515.747 67.288 510.5 67.288Z" fill="#8C90A3"/>
<path d="M549.5 67H537.5C532.253 67 528 71.2533 528 76.5C528 81.7467 532.253 86 537.5 86H549.5C554.747 86 559 81.7467 559 76.5C559 71.2533 554.747 67 549.5 67Z" fill="#8C90A3"/>
<path fill-rule="evenodd" clip-rule="evenodd" d="M284 27H391V424H284V27Z" fill="#353740"/>
<path d="M373.5 107H301.5C300.119 107 299 108.119 299 109.5C299 110.881 300.119 112 301.5 112H373.5C374.881 112 376 110.881 376 109.5C376 108.119 374.881 107 373.5 107Z" fill="#4A4E5D"/>
<path d="M373.5 126H301.5C300.119 126 299 127.119 299 128.5C299 129.881 300.119 131 301.5 131H373.5C374.881 131 376 129.881 376 128.5C376 127.119 374.881 126 373.5 126Z" fill="#4A4E5D"/>
<path d="M373.5 145H301.5C300.119 145 299 146.119 299 147.5C299 148.881 300.119 150 301.5 150H373.5C374.881 150 376 148.881 376 147.5C376 146.119 374.881 145 373.5 145Z" fill="#4A4E5D"/>
<path d="M373.5 164H301.5C300.119 164 299 165.119 299 166.5C299 167.881 300.119 169 301.5 169H373.5C374.881 169 376 167.881 376 166.5C376 165.119 374.881 164 373.5 164Z" fill="#4A4E5D"/>
<path d="M373.5 183H301.5C300.119 183 299 184.119 299 185.5C299 186.881 300.119 188 301.5 188H373.5C374.881 188 376 186.881 376 185.5C376 184.119 374.881 183 373.5 183Z" fill="#4A4E5D"/>
<path d="M373.5 405H301.5C300.119 405 299 406.119 299 407.5C299 408.881 300.119 410 301.5 410H373.5C374.881 410 376 408.881 376 407.5C376 406.119 374.881 405 373.5 405Z" fill="#4A4E5D"/>
<path d="M373.5 66H325.5C324.119 66 323 67.1193 323 68.5C323 69.8807 324.119 71 325.5 71H373.5C374.881 71 376 69.8807 376 68.5C376 67.1193 374.881 66 373.5 66Z" fill="#7B7F90"/>
<path d="M354.5 75H325.5C324.119 75 323 76.1193 323 77.5C323 78.8807 324.119 80 325.5 80H354.5C355.881 80 357 78.8807 357 77.5C357 76.1193 355.881 75 354.5 75Z" fill="#4A4E5D"/>
<path d="M308 82C312.971 82 317 77.9706 317 73C317 68.0294 312.971 64 308 64C303.029 64 299 68.0294 299 73C299 77.9706 303.029 82 308 82Z" fill="#FF5E5E"/>
<path d="M371.5 39H303.5C301.015 39 299 41.0147 299 43.5C299 45.9853 301.015 48 303.5 48H371.5C373.985 48 376 45.9853 376 43.5C376 41.0147 373.985 39 371.5 39Z" fill="#8C90A3"/>
</g>
<g opacity="0.098">
<path opacity="0.098" d="M584.64 17H573C571.895 17 571 17.8954 571 19C571 20.1046 571.895 21 573 21H584.64C585.745 21 586.64 20.1046 586.64 19C586.64 17.8954 585.745 17 584.64 17Z" fill="#4A5166"/>
<path opacity="0.098" d="M594 18.84C594 17.8238 593.176 17 592.16 17C591.144 17 590.32 17.8238 590.32 18.84V19.16C590.32 20.1762 591.144 21 592.16 21C593.176 21 594 20.1762 594 19.16V18.84Z" fill="#4A5166"/>
</g>
<mask id="mask2_1_3" style="mask-type:alpha" maskUnits="userSpaceOnUse" x="184" y="439" width="776" height="20">
<path d="M187 439H956.629C957.425 439 958.188 439.316 958.75 439.879C959.313 440.441 959.629 441.204 959.629 442V458.006H184V442C184 441.204 184.316 440.441 184.879 439.879C185.441 439.316 186.204 439 187 439V439Z" fill="white"/>
</mask>
<g mask="url(#mask2_1_3)">
<path d="M187 439H956.629C957.425 439 958.188 439.316 958.75 439.879C959.313 440.441 959.629 441.204 959.629 442V458.006H184V442C184 441.204 184.316 440.441 184.879 439.879C185.441 439.316 186.204 439 187 439V439Z" fill="#242942"/>
<path d="M625.159 392.436H518.47C512.947 392.436 508.47 396.913 508.47 402.436V440.404C508.47 445.927 512.947 450.404 518.47 450.404H625.159C630.682 450.404 635.159 445.927 635.159 440.404V402.436C635.159 396.913 630.682 392.436 625.159 392.436Z" fill="#2E334F"/>
</g>
<path d="M184 457H960C960 458.857 959.263 460.637 957.95 461.95C956.637 463.262 954.857 464 953 464H191C189.143 464 187.363 463.262 186.05 461.95C184.737 460.637 184 458.857 184 457V457Z" fill="#1A1C27"/>
<g filter="url(#filter0_d_1_3)">
<path d="M199 9.20999H56C49.3726 9.20999 44 14.5826 44 21.21V338.21C44 344.837 49.3726 350.21 56 350.21H199C205.627 350.21 211 344.837 211 338.21V21.21C211 14.5826 205.627 9.20999 199 9.20999Z" fill="black"/>
</g>
<path d="M199 9.20999H56C49.3726 9.20999 44 14.5826 44 21.21V338.21C44 344.837 49.3726 350.21 56 350.21H199C205.627 350.21 211 344.837 211 338.21V21.21C211 14.5826 205.627 9.20999 199 9.20999Z" fill="#242942"/>
<mask id="mask3_1_3" style="mask-type:alpha" maskUnits="userSpaceOnUse" x="50" y="15" width="155" height="330">
<path d="M196 15H59C54.0294 15 50 19.0294 50 24V336C50 340.971 54.0294 345 59 345H196C200.971 345 205 340.971 205 336V24C205 19.0294 200.971 15 196 15Z" fill="white"/>
</mask>
<g mask="url(#mask3_1_3)">
<path d="M196 15H59C54.0294 15 50 19.0294 50 24V336C50 340.971 54.0294 345 59 345H196C200.971 345 205 340.971 205 336V24C205 19.0294 200.971 15 196 15Z" fill="#EBEDF4"/>
<path fill-rule="evenodd" clip-rule="evenodd" d="M50 15H205V92H50V15Z" fill="#353740"/>
<mask id="mask4_1_3" style="mask-type:alpha" maskUnits="userSpaceOnUse" x="58" y="123" width="140" height="184">
<path d="M193 123H63C60.2386 123 58 125.239 58 128V302C58 304.761 60.2386 307 63 307H193C195.761 307 198 304.761 198 302V128C198 125.239 195.761 123 193 123Z" fill="white"/>
</mask>
<g mask="url(#mask4_1_3)">
<path d="M193 123H63C60.2386 123 58 125.239 58 128V302C58 304.761 60.2386 307 63 307H193C195.761 307 198 304.761 198 302V128C198 125.239 195.761 123 193 123Z" fill="white"/>
<path d="M162 155H322C328.627 155 334 160.373 334 167C334 173.627 328.627 179 322 179H162C155.373 179 150 173.627 150 167C150 160.373 155.373 155 162 155Z" fill="#FF5E5E"/>
<path d="M162 251H322C328.627 251 334 256.373 334 263C334 269.627 328.627 275 322 275H162C155.373 275 150 269.627 150 263C150 256.373 155.373 251 162 251Z" fill="#FF5E5E"/>
<path d="M118 167C118 160.373 123.373 155 130 155C136.627 155 142 160.373 142 167C142 173.627 136.627 179 130 179C123.373 179 118 173.627 118 167Z" fill="#BC4747"/>
<path d="M66 187H130C136.627 187 142 192.373 142 199C142 205.627 136.627 211 130 211H66C59.3726 211 54 205.627 54 199C54 192.373 59.3726 187 66 187Z" fill="#FF5E5E"/>
<path d="M162 186.547H252C258.627 186.547 264 191.92 264 198.547C264 205.174 258.627 210.547 252 210.547H162C155.373 210.547 150 205.174 150 198.547C150 191.92 155.373 186.547 162 186.547Z" fill="#BC4747"/>
<path d="M66 219.53H92C98.6274 219.53 104 224.903 104 231.53C104 238.157 98.6274 243.53 92 243.53H66C59.3726 243.53 54 238.157 54 231.53C54 224.903 59.3726 219.53 66 219.53Z" fill="#FF5E5E"/>
</g>
<path d="M193 67H63C60.2386 67 58 69.2386 58 72V109C58 111.761 60.2386 114 63 114H193C195.761 114 198 111.761 198 109V72C198 69.2386 195.761 67 193 67Z" fill="white"/>
<path d="M161.5 36H89.5C88.1193 36 87 37.1193 87 38.5C87 39.8807 88.1193 41 89.5 41H161.5C162.881 41 164 39.8807 164 38.5C164 37.1193 162.881 36 161.5 36Z" fill="#4A4E5D"/>
</g>
<path d="M173.5 85H76.5C75.1193 85 74 86.1193 74 87.5C74 88.8807 75.1193 90 76.5 90H173.5C174.881 90 176 88.8807 176 87.5C176 86.1193 174.881 85 173.5 85Z" fill="#B1B4C7"/>
<path d="M136.5 94H76.5C75.1193 94 74 95.1193 74 96.5C74 97.8807 75.1193 99 76.5 99H136.5C137.881 99 139 97.8807 139 96.5C139 95.1193 137.881 94 136.5 94Z" fill="#D4D7E6"/>
<defs>
<filter id="filter0_d_1_3" x="0" y="-0.790009" width="267" height="441" filterUnits="userSpaceOnUse" color-interpolation-filters="sRGB">
<feFlood flood-opacity="0" result="BackgroundImageFix"/>
<feColorMatrix in="SourceAlpha" type="matrix" values="0 0 0 0 0 0 0 0 0 0 0 0 0 0 0 0 0 0 127 0" result="hardAlpha"/>
<feOffset dx="6" dy="40"/>
<feGaussianBlur stdDeviation="25"/>
<feColorMatrix type="matrix" values="0 0 0 0 0.24346 0 0 0 0 0.279313 0 0 0 0 0.375399 0 0 0 0.255293 0"/>
<feBlend mode="normal" in2="BackgroundImageFix" result="effect1_dropShadow_1_3"/>
<feBlend mode="normal" in="SourceGraphic" in2="effect1_dropShadow_1_3" result="shape"/>
</filter>
</defs>
</svg>
